<mxfile host="app.diagrams.net" modified="2023-08-05T22:26:06.018Z" agent="Mozilla/5.0 (Windows NT 10.0; Win64; x64) AppleWebKit/537.36 (KHTML, like Gecko) Chrome/115.0.0.0 Safari/537.36" etag="6P9obyKCv8tHBeVmZrB9" version="21.6.6" type="device">
  <diagram name="Page-1" id="CvcAEHIS-iYXI6-KwmQz">
    <mxGraphModel dx="784" dy="447" grid="1" gridSize="10" guides="1" tooltips="1" connect="1" arrows="1" fold="1" page="1" pageScale="1" pageWidth="850" pageHeight="1100" math="0" shadow="0">
      <root>
        <mxCell id="0" />
        <mxCell id="1" parent="0" />
        <mxCell id="MzBP8Rp11Z27vB-buMX2-2" value="&lt;font style=&quot;font-size: 15px;&quot; face=&quot;Courier New&quot;&gt;Microprocessor&lt;br&gt;80386DX&lt;br&gt;&lt;/font&gt;" style="rounded=0;whiteSpace=wrap;html=1;" parent="1" vertex="1">
          <mxGeometry x="30" y="240" width="160" height="320" as="geometry" />
        </mxCell>
        <mxCell id="MzBP8Rp11Z27vB-buMX2-3" value="&lt;font style=&quot;font-size: 20px;&quot; face=&quot;Courier New&quot;&gt;SDRAM Controller&lt;/font&gt;" style="rounded=0;whiteSpace=wrap;html=1;" parent="1" vertex="1">
          <mxGeometry x="340" y="240" width="160" height="320" as="geometry" />
        </mxCell>
        <mxCell id="MzBP8Rp11Z27vB-buMX2-4" value="&lt;font face=&quot;Courier New&quot; style=&quot;font-size: 15px;&quot;&gt;SDRAM Memory&lt;br&gt;MT48LC8M8A2TG-75&lt;br&gt;&lt;/font&gt;" style="rounded=0;whiteSpace=wrap;html=1;" parent="1" vertex="1">
          <mxGeometry x="650" y="240" width="160" height="320" as="geometry" />
        </mxCell>
        <mxCell id="ZI1oGdIgUcE_8IpR1qUe-4" value="" style="endArrow=classic;html=1;rounded=0;endFill=1;entryX=0;entryY=0.188;entryDx=0;entryDy=0;entryPerimeter=0;" parent="1" edge="1">
          <mxGeometry relative="1" as="geometry">
            <mxPoint x="190" y="300" as="sourcePoint" />
            <mxPoint x="340" y="300" as="targetPoint" />
          </mxGeometry>
        </mxCell>
        <mxCell id="ZI1oGdIgUcE_8IpR1qUe-5" value="RESET#" style="edgeLabel;resizable=0;html=1;align=center;verticalAlign=middle;fontFamily=Courier New;fontSize=12;" parent="ZI1oGdIgUcE_8IpR1qUe-4" connectable="0" vertex="1">
          <mxGeometry relative="1" as="geometry" />
        </mxCell>
        <mxCell id="ZI1oGdIgUcE_8IpR1qUe-11" value="" style="endArrow=classic;html=1;rounded=0;" parent="1" edge="1">
          <mxGeometry relative="1" as="geometry">
            <mxPoint x="340" y="330" as="sourcePoint" />
            <mxPoint x="190" y="330" as="targetPoint" />
          </mxGeometry>
        </mxCell>
        <mxCell id="ZI1oGdIgUcE_8IpR1qUe-12" value="READY#" style="edgeLabel;resizable=0;html=1;align=center;verticalAlign=middle;fontFamily=Courier New;fontSize=12;" parent="ZI1oGdIgUcE_8IpR1qUe-11" connectable="0" vertex="1">
          <mxGeometry relative="1" as="geometry" />
        </mxCell>
        <mxCell id="ZI1oGdIgUcE_8IpR1qUe-23" value="" style="endArrow=classic;html=1;rounded=0;" parent="1" edge="1">
          <mxGeometry relative="1" as="geometry">
            <mxPoint x="190" y="360" as="sourcePoint" />
            <mxPoint x="340" y="360" as="targetPoint" />
          </mxGeometry>
        </mxCell>
        <mxCell id="ZI1oGdIgUcE_8IpR1qUe-24" value="A[31:2]" style="edgeLabel;resizable=0;html=1;align=center;verticalAlign=middle;fontSize=12;fontFamily=Courier New;" parent="ZI1oGdIgUcE_8IpR1qUe-23" connectable="0" vertex="1">
          <mxGeometry relative="1" as="geometry" />
        </mxCell>
        <mxCell id="ZI1oGdIgUcE_8IpR1qUe-25" value="" style="endArrow=classic;html=1;rounded=0;startArrow=classic;startFill=1;" parent="1" edge="1">
          <mxGeometry relative="1" as="geometry">
            <mxPoint x="190" y="390" as="sourcePoint" />
            <mxPoint x="340" y="390" as="targetPoint" />
          </mxGeometry>
        </mxCell>
        <mxCell id="ZI1oGdIgUcE_8IpR1qUe-26" value="D[31:0]" style="edgeLabel;resizable=0;html=1;align=center;verticalAlign=middle;fontFamily=Courier New;fontSize=12;" parent="ZI1oGdIgUcE_8IpR1qUe-25" connectable="0" vertex="1">
          <mxGeometry relative="1" as="geometry" />
        </mxCell>
        <mxCell id="ZI1oGdIgUcE_8IpR1qUe-27" value="" style="endArrow=classic;html=1;rounded=0;exitX=-0.004;exitY=0.342;exitDx=0;exitDy=0;exitPerimeter=0;" parent="1" edge="1">
          <mxGeometry relative="1" as="geometry">
            <mxPoint x="190" y="419.76" as="sourcePoint" />
            <mxPoint x="340" y="419.76" as="targetPoint" />
          </mxGeometry>
        </mxCell>
        <mxCell id="ZI1oGdIgUcE_8IpR1qUe-28" value="BE#[3:0]" style="edgeLabel;resizable=0;html=1;align=center;verticalAlign=middle;fontFamily=Courier New;fontSize=12;" parent="ZI1oGdIgUcE_8IpR1qUe-27" connectable="0" vertex="1">
          <mxGeometry relative="1" as="geometry" />
        </mxCell>
        <mxCell id="ZI1oGdIgUcE_8IpR1qUe-31" value="" style="endArrow=classic;html=1;rounded=0;" parent="1" edge="1">
          <mxGeometry relative="1" as="geometry">
            <mxPoint x="190" y="480" as="sourcePoint" />
            <mxPoint x="340" y="480" as="targetPoint" />
          </mxGeometry>
        </mxCell>
        <mxCell id="ZI1oGdIgUcE_8IpR1qUe-32" value="W/R#" style="edgeLabel;resizable=0;html=1;align=center;verticalAlign=middle;fontSize=12;fontFamily=Courier New;" parent="ZI1oGdIgUcE_8IpR1qUe-31" connectable="0" vertex="1">
          <mxGeometry relative="1" as="geometry" />
        </mxCell>
        <mxCell id="ZI1oGdIgUcE_8IpR1qUe-33" value="" style="endArrow=classic;html=1;rounded=0;" parent="1" edge="1">
          <mxGeometry relative="1" as="geometry">
            <mxPoint x="190" y="510" as="sourcePoint" />
            <mxPoint x="340" y="510" as="targetPoint" />
          </mxGeometry>
        </mxCell>
        <mxCell id="ZI1oGdIgUcE_8IpR1qUe-34" value="M/IO#" style="edgeLabel;resizable=0;html=1;align=center;verticalAlign=middle;fontSize=12;fontFamily=Courier New;" parent="ZI1oGdIgUcE_8IpR1qUe-33" connectable="0" vertex="1">
          <mxGeometry relative="1" as="geometry" />
        </mxCell>
        <mxCell id="ZI1oGdIgUcE_8IpR1qUe-39" value="" style="endArrow=classic;html=1;rounded=0;" parent="1" edge="1">
          <mxGeometry relative="1" as="geometry">
            <mxPoint x="190" y="450" as="sourcePoint" />
            <mxPoint x="340" y="450" as="targetPoint" />
          </mxGeometry>
        </mxCell>
        <mxCell id="ZI1oGdIgUcE_8IpR1qUe-40" value="ADS#" style="edgeLabel;resizable=0;html=1;align=center;verticalAlign=middle;fontFamily=Courier New;fontSize=12;" parent="ZI1oGdIgUcE_8IpR1qUe-39" connectable="0" vertex="1">
          <mxGeometry relative="1" as="geometry" />
        </mxCell>
        <mxCell id="ZI1oGdIgUcE_8IpR1qUe-43" value="" style="endArrow=classic;html=1;rounded=0;" parent="1" edge="1">
          <mxGeometry relative="1" as="geometry">
            <mxPoint x="500" y="270" as="sourcePoint" />
            <mxPoint x="650" y="270" as="targetPoint" />
          </mxGeometry>
        </mxCell>
        <mxCell id="ZI1oGdIgUcE_8IpR1qUe-44" value="SDRAM_CLK" style="edgeLabel;resizable=0;html=1;align=center;verticalAlign=middle;fontFamily=Courier New;fontSize=12;" parent="ZI1oGdIgUcE_8IpR1qUe-43" connectable="0" vertex="1">
          <mxGeometry relative="1" as="geometry" />
        </mxCell>
        <mxCell id="ZI1oGdIgUcE_8IpR1qUe-45" value="" style="endArrow=classic;html=1;rounded=0;" parent="1" edge="1">
          <mxGeometry relative="1" as="geometry">
            <mxPoint x="500" y="300" as="sourcePoint" />
            <mxPoint x="650" y="300" as="targetPoint" />
          </mxGeometry>
        </mxCell>
        <mxCell id="ZI1oGdIgUcE_8IpR1qUe-46" value="SDRAM_CKE" style="edgeLabel;resizable=0;html=1;align=center;verticalAlign=middle;fontFamily=Courier New;fontSize=12;" parent="ZI1oGdIgUcE_8IpR1qUe-45" connectable="0" vertex="1">
          <mxGeometry relative="1" as="geometry" />
        </mxCell>
        <mxCell id="ZI1oGdIgUcE_8IpR1qUe-49" value="" style="endArrow=classic;html=1;rounded=0;" parent="1" edge="1">
          <mxGeometry relative="1" as="geometry">
            <mxPoint x="500" y="360" as="sourcePoint" />
            <mxPoint x="650" y="360" as="targetPoint" />
          </mxGeometry>
        </mxCell>
        <mxCell id="ZI1oGdIgUcE_8IpR1qUe-50" value="SDRAM_A[11:0]" style="edgeLabel;resizable=0;html=1;align=center;verticalAlign=middle;fontFamily=Courier New;fontSize=12;" parent="ZI1oGdIgUcE_8IpR1qUe-49" connectable="0" vertex="1">
          <mxGeometry relative="1" as="geometry" />
        </mxCell>
        <mxCell id="ZI1oGdIgUcE_8IpR1qUe-51" value="" style="endArrow=classic;html=1;rounded=0;startArrow=classic;startFill=1;" parent="1" edge="1">
          <mxGeometry relative="1" as="geometry">
            <mxPoint x="500" y="390" as="sourcePoint" />
            <mxPoint x="650" y="390" as="targetPoint" />
          </mxGeometry>
        </mxCell>
        <mxCell id="ZI1oGdIgUcE_8IpR1qUe-52" value="SDRAM_DQ[7:0]" style="edgeLabel;resizable=0;html=1;align=center;verticalAlign=middle;fontFamily=Courier New;fontSize=12;" parent="ZI1oGdIgUcE_8IpR1qUe-51" connectable="0" vertex="1">
          <mxGeometry relative="1" as="geometry" />
        </mxCell>
        <mxCell id="ZI1oGdIgUcE_8IpR1qUe-55" value="" style="endArrow=classic;html=1;rounded=0;" parent="1" edge="1">
          <mxGeometry relative="1" as="geometry">
            <mxPoint x="500" y="420" as="sourcePoint" />
            <mxPoint x="650" y="420" as="targetPoint" />
          </mxGeometry>
        </mxCell>
        <mxCell id="ZI1oGdIgUcE_8IpR1qUe-56" value="SDRAM_BA[1:0]" style="edgeLabel;resizable=0;html=1;align=center;verticalAlign=middle;fontFamily=Courier New;fontSize=12;" parent="ZI1oGdIgUcE_8IpR1qUe-55" connectable="0" vertex="1">
          <mxGeometry relative="1" as="geometry" />
        </mxCell>
        <mxCell id="ZI1oGdIgUcE_8IpR1qUe-57" value="" style="endArrow=classic;html=1;rounded=0;" parent="1" edge="1">
          <mxGeometry relative="1" as="geometry">
            <mxPoint x="500" y="480" as="sourcePoint" />
            <mxPoint x="650" y="480" as="targetPoint" />
          </mxGeometry>
        </mxCell>
        <mxCell id="ZI1oGdIgUcE_8IpR1qUe-58" value="SDRAM_DQM" style="edgeLabel;resizable=0;html=1;align=center;verticalAlign=middle;fontFamily=Courier New;fontSize=12;" parent="ZI1oGdIgUcE_8IpR1qUe-57" connectable="0" vertex="1">
          <mxGeometry relative="1" as="geometry" />
        </mxCell>
        <mxCell id="ZI1oGdIgUcE_8IpR1qUe-74" value="" style="group" parent="1" vertex="1" connectable="0">
          <mxGeometry x="500" y="330" width="150" height="10" as="geometry" />
        </mxCell>
        <mxCell id="ZI1oGdIgUcE_8IpR1qUe-47" value="" style="endArrow=classic;html=1;rounded=0;" parent="ZI1oGdIgUcE_8IpR1qUe-74" edge="1">
          <mxGeometry relative="1" as="geometry">
            <mxPoint as="sourcePoint" />
            <mxPoint x="150" as="targetPoint" />
          </mxGeometry>
        </mxCell>
        <mxCell id="ZI1oGdIgUcE_8IpR1qUe-48" value="SDRAM_CMD" style="edgeLabel;resizable=0;html=1;align=center;verticalAlign=bottom;fontFamily=Courier New;fontSize=12;" parent="ZI1oGdIgUcE_8IpR1qUe-47" connectable="0" vertex="1">
          <mxGeometry relative="1" as="geometry" />
        </mxCell>
        <mxCell id="ZI1oGdIgUcE_8IpR1qUe-73" value="(WE#,RAS#,CAS#)" style="edgeLabel;resizable=0;html=1;align=center;verticalAlign=middle;fontFamily=Courier New;fontSize=12;container=1;" parent="ZI1oGdIgUcE_8IpR1qUe-74" connectable="0" vertex="1">
          <mxGeometry x="75" y="10" as="geometry" />
        </mxCell>
        <mxCell id="-f5tgRdo8IthoZ3TI8Q1-3" value="" style="endArrow=classic;html=1;rounded=0;" parent="1" edge="1">
          <mxGeometry relative="1" as="geometry">
            <mxPoint x="190" y="540" as="sourcePoint" />
            <mxPoint x="340" y="540" as="targetPoint" />
          </mxGeometry>
        </mxCell>
        <mxCell id="-f5tgRdo8IthoZ3TI8Q1-4" value="CS#" style="edgeLabel;resizable=0;html=1;align=center;verticalAlign=middle;fontSize=12;fontFamily=Courier New;" parent="-f5tgRdo8IthoZ3TI8Q1-3" connectable="0" vertex="1">
          <mxGeometry relative="1" as="geometry" />
        </mxCell>
        <mxCell id="-f5tgRdo8IthoZ3TI8Q1-5" value="" style="endArrow=classic;html=1;rounded=0;" parent="1" edge="1">
          <mxGeometry relative="1" as="geometry">
            <mxPoint x="500" y="450" as="sourcePoint" />
            <mxPoint x="650" y="450" as="targetPoint" />
          </mxGeometry>
        </mxCell>
        <mxCell id="-f5tgRdo8IthoZ3TI8Q1-6" value="SDRAM_CS#" style="edgeLabel;resizable=0;html=1;align=center;verticalAlign=middle;fontFamily=Courier New;fontSize=12;" parent="-f5tgRdo8IthoZ3TI8Q1-5" connectable="0" vertex="1">
          <mxGeometry relative="1" as="geometry" />
        </mxCell>
        <mxCell id="-f5tgRdo8IthoZ3TI8Q1-8" value="&lt;font face=&quot;Courier New&quot;&gt;Phase Lock-Loop&lt;/font&gt;" style="rounded=0;whiteSpace=wrap;html=1;" parent="1" vertex="1">
          <mxGeometry x="340" y="120" width="160" height="70" as="geometry" />
        </mxCell>
        <mxCell id="b-UGQtGyF6ctaG0ROIJK-5" value="&lt;font style=&quot;font-size: 12px;&quot;&gt;CLK2&lt;/font&gt;" style="edgeStyle=elbowEdgeStyle;elbow=horizontal;endArrow=classic;html=1;curved=0;rounded=0;endSize=8;startSize=8;entryX=-0.024;entryY=0.446;entryDx=0;entryDy=0;entryPerimeter=0;fontFamily=Courier New;" edge="1" parent="1" target="-f5tgRdo8IthoZ3TI8Q1-8">
          <mxGeometry width="50" height="50" relative="1" as="geometry">
            <mxPoint x="190" y="270" as="sourcePoint" />
            <mxPoint x="240" y="220" as="targetPoint" />
            <Array as="points">
              <mxPoint x="270" y="210" />
            </Array>
          </mxGeometry>
        </mxCell>
        <mxCell id="b-UGQtGyF6ctaG0ROIJK-9" value="" style="endArrow=classic;html=1;rounded=0;exitX=0.5;exitY=1;exitDx=0;exitDy=0;entryX=0.5;entryY=0;entryDx=0;entryDy=0;fontSize=12;" edge="1" parent="1" source="-f5tgRdo8IthoZ3TI8Q1-8" target="MzBP8Rp11Z27vB-buMX2-3">
          <mxGeometry relative="1" as="geometry">
            <mxPoint x="375" y="210" as="sourcePoint" />
            <mxPoint x="475" y="210" as="targetPoint" />
          </mxGeometry>
        </mxCell>
        <mxCell id="b-UGQtGyF6ctaG0ROIJK-10" value="&lt;font style=&quot;font-size: 12px;&quot; face=&quot;Courier New&quot;&gt;CLK&lt;/font&gt;" style="edgeLabel;resizable=0;html=1;align=center;verticalAlign=middle;" connectable="0" vertex="1" parent="b-UGQtGyF6ctaG0ROIJK-9">
          <mxGeometry relative="1" as="geometry" />
        </mxCell>
      </root>
    </mxGraphModel>
  </diagram>
</mxfile>
